<svg xmlns="http://www.w3.org/2000/svg">
    <symbol id="html" viewBox="0 0 451 513">
        <path fill="#e34f26" d="M41 460L0 0h451l-41 460-185 52"/>
        <path fill="#ef652a" d="M226 472l149-41 35-394H226"/>
        <path fill="#ecedee" d="M226 208h-75l-5-58h80V94H84l15 171h127zm0 147l-64-17-4-45h-56l7 89 117 32z"/>
        <path fill="#fff" d="M226 265h69l-7 73-62 17v59l115-32 16-174H226zm0-171v56h136l5-56z"/>
    </symbol>
    <symbol id="css" viewBox="0 0 452 512">
        <path fill="#0c73b8" d="M41 460L0 0h451l-41 460-185 52"/>
        <path fill="#30a9dc" d="M226 472l149-41 35-394H226"/>
        <path fill="#ecedee" d="M226 208H94l5 57h127zm0-114H84l5 56h137zm0 261l-124-33 7 60 117 32z"/>
        <path fill="#fff" d="M226 265h69l-7 73-62 17v59l115-32 26-288H226v56h80l-6 58h-74z"/>
    </symbol>
    <symbol id="javascript" viewBox="0 0 630 630">
        <path fill="#f7df1e" d="M0 0h630v630H0z"/>
        <path d="M423 492c13 21 29 36 59 36 24 0 40-12 40-29 0-20-16-28-43-39l-15-7c-43-18-71-41-71-89 0-44 34-78 86-78 38 0 65 13 85 47l-46 30c-11-18-22-25-39-25s-28 11-28 25c0 18 11 25 37 36l14 6c51 22 79 44 79 93 0 53-42 83-98 83-55 0-91-27-108-61zm-209 5c9 17 18 31 38 31s32-8 32-37V289h59v202c0 62-36 90-88 90-48 0-75-25-89-55z"/>
    </symbol>
    <symbol id="astro" fill="none" viewBox="0 0 85 107">
        <path fill="#fff" d="M27.6 91.1c-4.8-4.4-6.3-13.7-4.2-20.4 3.5 4.2 8.3 5.6 13.3 6.3 7.7 1.2 15.3.8 22.5-2.8l2.5-1.4c.7 2 .9 3.9.6 5.9-.6 4.9-3 8.7-6.9 11.5-1.5 1.2-3.2 2.2-4.8 3.3-4.9 3.3-6.2 7.2-4.4 12.9l.2.6a13 13 0 0 1-5.7-5 13.8 13.8 0 0 1-2.2-7.4c0-1.3 0-2.7-.2-4-.5-3.1-2-4.6-4.8-4.7a5.5 5.5 0 0 0-5.7 4.6l-.2.6Z"/>
        <path fill="url(#a)" d="M27.6 91.1c-4.8-4.4-6.3-13.7-4.2-20.4 3.5 4.2 8.3 5.6 13.3 6.3 7.7 1.2 15.3.8 22.5-2.8l2.5-1.4c.7 2 .9 3.9.6 5.9-.6 4.9-3 8.7-6.9 11.5-1.5 1.2-3.2 2.2-4.8 3.3-4.9 3.3-6.2 7.2-4.4 12.9l.2.6a13 13 0 0 1-5.7-5 13.8 13.8 0 0 1-2.2-7.4c0-1.3 0-2.7-.2-4-.5-3.1-2-4.6-4.8-4.7a5.5 5.5 0 0 0-5.7 4.6l-.2.6Z"/>
        <path fill="#fff" d="M0 69.6s14.3-7 28.7-7l10.8-33.5c.4-1.6 1.6-2.7 3-2.7 1.2 0 2.4 1.1 2.8 2.7l10.9 33.5c17 0 28.6 7 28.6 7L60.5 3.2c-.7-2-2-3.2-3.5-3.2H27.8c-1.6 0-2.7 1.3-3.4 3.2L0 69.6Z"/>
        <defs>
            <linearGradient id="a" x1="22.5" x2="69.1" y1="107" y2="84.9" gradientUnits="userSpaceOnUse">
                <stop stop-color="#D83333"/>
                <stop offset="1" stop-color="#F041FF"/>
            </linearGradient>
        </defs>
    </symbol>
    <symbol id="bootstrap" fill-rule="evenodd" clip-rule="evenodd" image-rendering="optimizeQuality" shape-rendering="geometricPrecision" text-rendering="geometricPrecision" viewBox="0 0 512 408">
        <defs>
            <linearGradient id="a" x1="76" x2="523" y1="10" y2="365" gradientUnits="userSpaceOnUse">
                <stop offset="0" stop-color="#9013FE"/>
                <stop offset="1" stop-color="#6610F2"/>
            </linearGradient>
        </defs>
        <path fill="url(#a)" fill-rule="nonzero" d="M56 53c0-27 21-53 50-53h300c29 0 51 26 50 53s0 61 9 90c8 28 23 46 47 48v26c-24 2-39 20-47 48-9 29-10 63-9 90s-21 53-50 53H106c-29 0-50-26-50-53 1-27 0-61-8-90-9-28-24-46-48-48v-26c24-2 39-20 48-48 8-29 9-63 8-90z"/>
        <path fill="#fff" d="M343 251c0 38-29 61-76 61h-89V95h89c39 0 65 22 65 55 0 23-17 43-40 47v1c31 3 51 24 51 53zm-131 34v-71h46c33 0 50 12 50 35s-17 36-48 36h-48zm0-162h46c25 0 39 11 39 31 0 22-16 34-46 34h-39v-65z"/>
    </symbol>
    <symbol id="cloudinary" viewBox="0 0 172.8 113.2">
        <g fill="#3448c5">
            <path d="M140.3 40.3A57.8 57.8 0 0 0 85.5 0a56.8 56.8 0 0 0-50.4 29.9 42.8 42.8 0 0 0-10.3 81l1 .5h.2V99.2a32 32 0 0 1 13.3-59l3-.3 1.3-2.7a46 46 0 0 1 41.9-26.4 46.8 46.8 0 0 1 45.2 35.8l1 4.1 4.2.1a26.6 26.6 0 0 1 26 26.5 24 24 0 0 1-15.7 22.5v11.6l.7-.3a35.4 35.4 0 0 0 25.8-33.8 37.5 37.5 0 0 0-32.6-37Z"/>
            <path d="m64.6 110 2.3 2.4a.5.5 0 0 1-.3.8H47.8a8.5 8.5 0 0 1-8.5-8.5V68a.5.5 0 0 0-.5-.4h-4a.5.5 0 0 1-.4-.8l16-16a.5.5 0 0 1 .6 0l16 16a.5.5 0 0 1-.4.8h-4a.5.5 0 0 0-.5.4V104a8.5 8.5 0 0 0 2.5 6ZM99.8 110l2.3 2.4a.5.5 0 0 1-.3.8H83a8.5 8.5 0 0 1-8.5-8.5V77.3a.5.5 0 0 0-.5-.5h-4a.5.5 0 0 1-.3-.8l15.8-15.9a.5.5 0 0 1 .7 0l16 15.9a.5.5 0 0 1-.4.8h-4a.5.5 0 0 0-.5.5V104a8.5 8.5 0 0 0 2.5 6ZM135 110l2.4 2.4a.5.5 0 0 1-.4.8h-18.8a8.5 8.5 0 0 1-8.5-8.5V86.5a.5.5 0 0 0-.5-.5h-4a.5.5 0 0 1-.4-.8l16-16a.5.5 0 0 1 .6 0l16 16a.5.5 0 0 1-.4.8h-4a.5.5 0 0 0-.6.5V104a8.5 8.5 0 0 0 2.6 6Z"/>
        </g>
    </symbol>
    <symbol id="firebase" viewBox="32 8 128 176"
        xmlns="http://www.w3.org/2000/svg">
        <defs>
            <linearGradient gradientTransform="matrix(2.67 0 0 -2.67 317.23 -1808)" gradientUnits="userSpaceOnUse" id="dd" x1="-108.63" x2="-58.56" y1="-692.24" y2="-742.31">
                <stop offset="0" stop-color="#fff" stop-opacity=".1">
                </stop>
                <stop offset="1" stop-color="#fff" stop-opacity="0">
                </stop>
            </linearGradient>
            <linearGradient gradientUnits="userSpaceOnUse" id="bb" x1="56.9" x2="48.9" y1="102.54" y2="98.36">
                <stop offset="0" stop-color="#a52714">
                </stop>
                <stop offset=".4" stop-color="#a52714" stop-opacity=".5">
                </stop>
                <stop offset=".8" stop-color="#a52714" stop-opacity="0">
                </stop>
            </linearGradient>
            <linearGradient gradientUnits="userSpaceOnUse" id="cc" x1="90.89" x2="87.31" y1="90.91" y2="87.33">
                <stop offset="0" stop-color="#a52714" stop-opacity=".8">
                </stop>
                <stop offset=".5" stop-color="#a52714" stop-opacity=".21">
                </stop>
                <stop offset="1" stop-color="#a52714" stop-opacity="0">
                </stop>
            </linearGradient>
            <clipPath id="aa">
                <path d="M143.41 47.34a4 4 0 00-6.77-2.16L115.88 66 99.54 34.89a4 4 0 00-7.08 0l-8.93 17-22.4-41.77a4 4 0 00-7.48 1.28L32 150l57.9 32.46a12 12 0 0011.7 0L160 150z">
                </path>
            </clipPath>
        </defs>
        <g clip-path="url(#aa)">
            <path d="M32 150L53.66 11.39a4 4 0 017.48-1.27l22.4 41.78 8.93-17a4 4 0 017.08 0L160 150z" fill="#ffa000">
            </path>
            <path d="M106 9L0 0v192l32-42L106 9z" fill="url(#bb)" opacity=".12">
            </path>
            <path d="M106.83 96.01l-23.3-44.12L32 150l74.83-53.99z" fill="#f57c00">
            </path>
            <path d="M0 0h192v192H0z" fill="url(#cc)" opacity=".2">
            </path>
            <path d="M160 150L143.41 47.34a4 4 0 00-6.77-2.16L32 150l57.9 32.47a12 12 0 0011.7 0z" fill="#ffca28">
            </path>
            <path d="M143.41 47.34a4 4 0 00-6.77-2.16L115.88 66 99.54 34.89a4 4 0 00-7.08 0l-8.93 17-22.4-41.77a4 4 0 00-7.48 1.28L32 150h-.08l.07.08.57.28L115.83 67l20.78-20.8a4 4 0 016.78 2.16l16.45 101.74.16-.1zM32.19 149.81L53.66 12.39a4 4 0 017.48-1.28l22.4 41.78 8.93-17a4 4 0 017.08 0l16 30.43z" fill="#fff" fill-opacity=".2">
            </path>
            <path d="M101.6 181.49a12 12 0 01-11.7 0l-57.76-32.4-.14.91 57.9 32.46a12 12 0 0011.7 0L160 150l-.15-.92z" fill="#a52714" opacity=".2" style="isolation:isolate">
            </path>
            <path d="M143.41 47.34a4 4 0 00-6.77-2.16L115.88 66 99.54 34.89a4 4 0 00-7.08 0l-8.93 17-22.4-41.77a4 4 0 00-7.48 1.28L32 150l57.9 32.46a12 12 0 0011.7 0L160 150z" fill="url(#dd)">
            </path>
        </g>
    </symbol>
    <symbol id="google-sheets" viewBox="0 0 64 88">
        <path d="M 42,0 64,22 53,24 42,22 40,11 Z" fill="#188038"/>
        <path d="M 42,22 V 0 H 6 C 2.685,0 0,2.685 0,6 v 76 c 0,3.315 2.685,6 6,6 h 52 c 3.315,0 6,-2.685 6,-6 V 22 Z" fill="#34a853"/>
        <path d="M 12,34 V 63 H 52 V 34 Z M 29.5,58 H 17 v -7 h 12.5 z m 0,-12 H 17 V 39 H 29.5 Z M 47,58 H 34.5 V 51 H 47 Z M 47,46 H 34.5 V 39 H 47 Z" fill="#fff"/>
    </symbol>
    <symbol id="instagram" viewBox="0 0 128 128">
        <path fill="none" d="M0 0h128v128H0z" clip-rule="evenodd"/>
        <radialGradient id="a" cx="19.1" cy="128.4" r="163.6" gradientUnits="userSpaceOnUse">
            <stop offset="0" style="stop-color:#ffb140"/>
            <stop offset=".3" style="stop-color:#ff5445"/>
            <stop offset=".6" style="stop-color:#fc2b82"/>
            <stop offset="1" style="stop-color:#8e40b7"/>
        </radialGradient>
        <path fill="url(#a)" fill-rule="evenodd" d="M105.8 29.8a7.7 7.7 0 1 1-15.3 0 7.7 7.7 0 0 1 15.3 0zM64 85.3a21.3 21.3 0 1 1 0-42.6 21.3 21.3 0 0 1 0 42.6zm0-54.2A32.9 32.9 0 1 0 64 97 32.9 32.9 0 0 0 64 31zm0-19.6c17 0 19.1.1 25.9.4 6.2.3 9.6 1.3 11.8 2.2 3 1.2 5.2 2.6 7.4 4.8 2.2 2.2 3.6 4.4 4.8 7.4.9 2.2 2 5.6 2.2 11.8.3 6.8.4 8.8.4 25.9 0 17-.1 19.1-.4 25.9-.3 6.2-1.3 9.6-2.2 11.8-1.2 3-2.6 5.2-4.8 7.4a19.8 19.8 0 0 1-7.4 4.8c-2.2.9-5.6 2-11.8 2.2-6.8.3-8.8.4-25.9.4-17 0-19.1 0-25.9-.4-6.2-.3-9.6-1.3-11.8-2.2-3-1.2-5.2-2.6-7.4-4.8a19.8 19.8 0 0 1-4.8-7.4c-.9-2.2-2-5.6-2.2-11.8-.3-6.8-.4-8.8-.4-25.9 0-17 .1-19.1.4-25.9.3-6.2 1.3-9.6 2.2-11.8 1.2-3 2.6-5.2 4.8-7.4 2.2-2.2 4.4-3.6 7.4-4.8 2.2-.9 5.6-2 11.8-2.2 6.8-.3 8.8-.4 25.9-.4zM64 0C46.6 0 44.4 0 37.6.4a47 47 0 0 0-15.5 3 31.4 31.4 0 0 0-11.4 7.3 31.4 31.4 0 0 0-7.3 11.4 47 47 0 0 0-3 15.5C0 44.4 0 46.6 0 64s0 19.6.4 26.4a47 47 0 0 0 3 15.5A31.4 31.4 0 0 0 22 124.6a47 47 0 0 0 15.5 3c6.8.3 9 .4 26.4.4s19.6 0 26.4-.4a47 47 0 0 0 15.5-3 31.4 31.4 0 0 0 18.7-18.7 47 47 0 0 0 3-15.5c.3-6.8.4-9 .4-26.4s0-19.6-.4-26.4a47 47 0 0 0-3-15.5 31.4 31.4 0 0 0-7.3-11.4 31.4 31.4 0 0 0-11.4-7.3 47 47 0 0 0-15.5-3C83.6 0 81.4 0 64 0z" clip-rule="evenodd"/>
    </symbol>
    <symbol id="nextjs" stroke-linejoin="round" style="color:currentColor" viewBox="0.6 0.6 14.8 14.8">
        <g clip-path="url(#clip0_53_108)">
            <circle cx="8" cy="8" r="7.375" fill="black" stroke="var(--ds-gray-1000)" strokewidth="1.25" stroke-linecap="round" stroke-linejoin="round" />
            <path d="M10.63 11V5" stroke="url(#paint0_linear_53_108vsxrmxu21)" strokewidth="1.25" stroke-miterlimit="1.41421" />
            <path fill-rule="evenodd" cliprule="evenodd" d="M5.995 5.00087V5H4.745V11H5.995V6.96798L12.3615 14.7076C12.712 14.4793 13.0434 14.2242 13.353 13.9453L5.99527 5.00065L5.995 5.00087Z" fill="url(#paint1_linear_53_108vsxrmxu21)" />
        </g>
        <defs>
            <linearGradient id="paint0_linear_53_108vsxrmxu21" x1="11.13" y1="5" x2="11.13" y2="11" gradientUnits="userSpaceOnUse">
                <stop stop-color="white" />
                <stop offset="0.609375" stop-color="white" stop-opacity="0.57" />
                <stop offset="0.796875" stop-color="white" stop-opacity="0" />
                <stop offset="1" stop-color="white" stop-opacity="0" />
            </linearGradient>
            <linearGradient id="paint1_linear_53_108vsxrmxu21" x1="9.9375" y1="9.0625" x2="13.5574" y2="13.3992" gradientUnits="userSpaceOnUse">
                <stop stop-color="white" />
                <stop offset="1" stop-color="white" stop-opacity="0" />
            </linearGradient>
            <clipPath id="clip0_53_108">
                <rect width="16" height="16" fill="red" />
            </clipPath>
        </defs>
    </symbol>
    <symbol id="react" viewBox="175.7 77 490.6 439">
        <g fill="#61dafb">
            <path d="M666 297c0-33-40-64-103-83 15-64 8-114-20-130-7-4-14-6-22-6v22c4 0 8 1 11 3 14 8 19 37 15 76l-5 29c-20-5-41-8-64-11-13-18-27-35-41-50 32-30 63-47 84-47V78c-28 0-64 20-100 54-37-34-73-54-100-54v23c21 0 51 16 84 46-14 15-28 32-41 50-23 3-44 6-64 11l-5-29c-5-38 1-68 14-76l12-2V78c-9 1-16 2-23 6-28 16-34 67-20 130-62 19-102 50-102 82 0 33 40 64 103 83-15 63-8 114 20 130 6 4 14 6 22 6 28 0 64-20 100-54 37 34 73 53 100 53 9 1 16-1 23-5 28-16 34-67 20-130 62-19 102-50 102-83zm-130-67-13 39a473 473 0 0 0-28-47l41 8zm-46 106-24 39a520 520 0 0 1-90 0 551 551 0 0 1-45-78 521 521 0 0 1 45-78 520 520 0 0 1 90 0 551 551 0 0 1 45 77c-6 14-13 27-21 40zm33-13c5 14 10 27 13 40l-41 8a552 552 0 0 0 28-48zM421 430l-28-32a619 619 0 0 0 56 0c-9 12-19 22-28 32zm-74-59-41-8c3-13 8-26 13-39a473 473 0 0 0 28 47zm74-208 27 32a619 619 0 0 0-55 0c9-12 18-22 28-32zm-74 59a552 552 0 0 0-28 48l-14-40 42-8zm-91 125c-35-15-58-35-58-50s23-36 58-51l28-10c6 19 13 40 22 61-9 20-16 41-22 60l-28-10zm54 143c-14-8-20-37-15-76l5-29c20 5 41 8 64 11 13 18 27 35 41 50-32 30-63 47-84 47-4 0-8-1-11-3zm237-76c5 38-1 68-14 76l-12 2c-21 0-51-16-84-46 14-15 28-32 41-50 23-3 44-6 64-11l5 29zm39-67-28 10c-6-19-13-40-23-61 10-20 17-41 23-60l28 10c35 15 58 35 58 51 0 15-23 35-58 50z"/>
            <circle cx="420.9" cy="296.5" r="45.7"/>
        </g>
    </symbol>
    <symbol id="redux" viewBox="11 13 79 75">
        <g fill="#764ABC">
            <path d="M65.6 65.4c2.9-.3 5.1-2.8 5-5.8-.1-3-2.6-5.4-5.6-5.4h-.2c-3.1.1-5.5 2.7-5.4 5.8.1 1.5.7 2.8 1.6 3.7-3.4 6.7-8.6 11.6-16.4 15.7-5.3 2.8-10.8 3.8-16.3 3.1-4.5-.6-8-2.6-10.2-5.9-3.2-4.9-3.5-10.2-.8-15.5 1.9-3.8 4.9-6.6 6.8-8-.4-1.3-1-3.5-1.3-5.1-14.5 10.5-13 24.7-8.6 31.4 3.3 5 10 8.1 17.4 8.1 2 0 4-.2 6-.7 12.8-2.5 22.5-10.1 28-21.4z"/>
            <path d="M83.2 53c-7.6-8.9-18.8-13.8-31.6-13.8H50c-.9-1.8-2.8-3-4.9-3h-.2c-3.1.1-5.5 2.7-5.4 5.8.1 3 2.6 5.4 5.6 5.4h.2c2.2-.1 4.1-1.5 4.9-3.4H52c7.6 0 14.8 2.2 21.3 6.5 5 3.3 8.6 7.6 10.6 12.8 1.7 4.2 1.6 8.3-.2 11.8-2.8 5.3-7.5 8.2-13.7 8.2-4 0-7.8-1.2-9.8-2.1-1.1 1-3.1 2.6-4.5 3.6 4.3 2 8.7 3.1 12.9 3.1 9.6 0 16.7-5.3 19.4-10.6 2.9-5.8 2.7-15.8-4.8-24.3z"/>
            <path d="M32.4 67.1c.1 3 2.6 5.4 5.6 5.4h.2c3.1-.1 5.5-2.7 5.4-5.8-.1-3-2.6-5.4-5.6-5.4h-.2c-.2 0-.5 0-.7.1-4.1-6.8-5.8-14.2-5.2-22.2.4-6 2.4-11.2 5.9-15.5 2.9-3.7 8.5-5.5 12.3-5.6 10.6-.2 15.1 13 15.4 18.3 1.3.3 3.5 1 5 1.5-1.2-16.2-11.2-24.6-20.8-24.6-9 0-17.3 6.5-20.6 16.1-4.6 12.8-1.6 25.1 4 34.8-.5.7-.8 1.8-.7 2.9z"/>
        </g>
    </symbol>
    <symbol id="supabase" viewBox="0 0 109 112.5" fill="none">
        <path d="M63.7076 110.284C60.8481 113.885 55.0502 111.912 54.9813 107.314L53.9738 40.0627L99.1935 40.0627C107.384 40.0627 111.952 49.5228 106.859 55.9374L63.7076 110.284Z" fill="url(#paint0_linear)"/>
        <path d="M63.7076 110.284C60.8481 113.885 55.0502 111.912 54.9813 107.314L53.9738 40.0627L99.1935 40.0627C107.384 40.0627 111.952 49.5228 106.859 55.9374L63.7076 110.284Z" fill="url(#paint1_linear)" fill-opacity="0.2"/>
        <path d="M45.317 2.07103C48.1765 -1.53037 53.9745 0.442937 54.0434 5.041L54.4849 72.2922H9.83113C1.64038 72.2922 -2.92775 62.8321 2.1655 56.4175L45.317 2.07103Z" fill="#3ECF8E"/>
        <defs>
            <linearGradient id="paint0_linear" x1="53.9738" y1="54.974" x2="94.1635" y2="71.8295" gradientUnits="userSpaceOnUse">
                <stop stop-color="#249361"/>
                <stop offset="1" stop-color="#3ECF8E"/>
            </linearGradient>
            <linearGradient id="paint1_linear" x1="36.1558" y1="30.578" x2="54.4844" y2="65.0806" gradientUnits="userSpaceOnUse">
                <stop/>
                <stop offset="1" stop-opacity="0"/>
            </linearGradient>
        </defs>
    </symbol>
    <symbol id="swiper" viewBox="0 0.5 129 129">
        <path fill="#0080FF" d="M98 10.3A64 64 0 0 1 42.3 125l-.7-.3 1.2-.4 1.5-.5.7-.2.8-.3 1.5-.5 1.4-.5 1.4-.5 1.4-.5.7-.3 1.4-.5 4.1-1.7 1-.5 1.2-.5 1.6-.7.8-.4 1.1-.5.6-.3.5-.3 1.1-.6c9.1-4.7 15.3-10 18.6-15.6 7-12 .9-25-16.6-38l-1.4-1.1-.8-.7-.9-.7-.8-.6-.8-.7-.4-.3-.3-.3-.8-.6-.5-.5-.5-.5-.7-.6-.7-.6-.6-.6-.3-.3-.3-.4-.6-.6C50.4 45 49 38.7 52 33.3c1.6-2.8 4.4-5.5 8.3-8.1l.5-.3.7-.5 1-.6.6-.4.8-.4.9-.5.7-.4.6-.3 1-.5c.6-.4 1.4-.7 2.1-1l.8-.4 1-.5.5-.2 1-.5.6-.2 1.1-.5.6-.2 1.1-.4.6-.3 1.2-.4 1.2-.5.6-.2 1.3-.4L82 15l1.3-.4.7-.2 1.3-.5 1.4-.4L88 13l1.4-.4 1.4-.4 1.9-.5 1.8-.6 2.4-.6 1-.3ZM64.2.8c7.8 0 15.3 1.4 22.2 4l.7.2-.5.2-2.2.7-.8.2-1.5.5-1.4.5-1.4.5L78 8l-1.4.5-.6.3-1.7.6-1.6.6-1.3.5-.6.3-1.2.5C57 16.6 49 22.6 45 29.3c-6.8 11.8-.6 24.5 16.8 37.6l1.4 1.1.9.7.8.6.4.4.8.6.6.5.6.5.7.6.4.3.7.7 1 1 .6.5.8.8.7.7c6.9 7.4 8.3 13.8 5 19.5a32.7 32.7 0 0 1-12 10.7l-.6.4-.8.5-1 .5-1.5.8-.8.4-1 .5-1 .5-1.1.5-.6.2-1 .5-1.2.5-1.1.5-.6.2-1.2.5-.6.2-.6.3-1.2.5-1.3.4-1.3.5-1.3.5-1.4.4-.6.3-1.4.5-.7.2-1.5.4-1.4.5-1.8.6-2 .6-1.5.4-2.1.6A64 64 0 0 1 64.3.8Z"/>
    </symbol>
    <symbol id="tailwind" viewBox="0 0 51 30.5">
        <path fill-rule="evenodd" clip-rule="evenodd" d="M25.517 0C18.712 0 14.46 3.382 12.758 10.146c2.552-3.382 5.529-4.65 8.931-3.805 1.941.482 3.329 1.882 4.864 3.432 2.502 2.524 5.398 5.445 11.722 5.445 6.804 0 11.057-3.382 12.758-10.145-2.551 3.382-5.528 4.65-8.93 3.804-1.942-.482-3.33-1.882-4.865-3.431C34.736 2.92 31.841 0 25.517 0zM12.758 15.218C5.954 15.218 1.701 18.6 0 25.364c2.552-3.382 5.529-4.65 8.93-3.805 1.942.482 3.33 1.882 4.865 3.432 2.502 2.524 5.397 5.445 11.722 5.445 6.804 0 11.057-3.381 12.758-10.145-2.552 3.382-5.529 4.65-8.931 3.805-1.941-.483-3.329-1.883-4.864-3.432-2.502-2.524-5.398-5.446-11.722-5.446z" fill="#38bdf8"></path>
    </symbol>
    <symbol id="tanstack" viewBox="0 0 633 633"
        xmlns="http://www.w3.org/2000/svg"
        xmlns:xlink="http://www.w3.org/1999/xlink">
        <defs>
            <linearGradient id="b" x1="50%" x2="50%" y1="0%" y2="71.65%">
                <stop offset="0%" stop-color="#6BDAFF"/>
                <stop offset="31.922%" stop-color="#F9FFB5"/>
                <stop offset="70.627%" stop-color="#FFA770"/>
                <stop offset="100%" stop-color="#FF7373"/>
            </linearGradient>
            <linearGradient id="d" x1="43.996%" x2="53.441%" y1="8.54%" y2="93.872%">
                <stop offset="0%" stop-color="#673800"/>
                <stop offset="100%" stop-color="#B65E00"/>
            </linearGradient>
            <linearGradient id="e" x1="50%" x2="50%" y1="0%" y2="100%">
                <stop offset="0%" stop-color="#2F8A00"/>
                <stop offset="100%" stop-color="#90FF57"/>
            </linearGradient>
            <linearGradient id="f" x1="50%" x2="50%" y1="0%" y2="100%">
                <stop offset="0%" stop-color="#2F8A00"/>
                <stop offset="100%" stop-color="#90FF57"/>
            </linearGradient>
            <linearGradient id="g" x1="50%" x2="50%" y1="0%" y2="100%">
                <stop offset="0%" stop-color="#2F8A00"/>
                <stop offset="100%" stop-color="#90FF57"/>
            </linearGradient>
            <linearGradient id="h" x1="50%" x2="50%" y1="0%" y2="100%">
                <stop offset="0%" stop-color="#2F8A00"/>
                <stop offset="100%" stop-color="#90FF57"/>
            </linearGradient>
            <linearGradient id="i" x1="50%" x2="50%" y1="0%" y2="100%">
                <stop offset="0%" stop-color="#2F8A00"/>
                <stop offset="100%" stop-color="#90FF57"/>
            </linearGradient>
            <linearGradient id="j" x1="50%" x2="50%" y1="0%" y2="100%">
                <stop offset="0%" stop-color="#2F8A00"/>
                <stop offset="100%" stop-color="#90FF57"/>
            </linearGradient>
            <linearGradient id="k" x1="92.9%" x2="8.641%" y1="45.768%" y2="54.892%">
                <stop offset="0%" stop-color="#EE2700"/>
                <stop offset="100%" stop-color="#FF008E"/>
            </linearGradient>
            <linearGradient id="l" x1="61.109%" x2="43.717%" y1="3.633%" y2="43.072%">
                <stop offset="0%" stop-color="#FFF400"/>
                <stop offset="100%" stop-color="#3C8700"/>
            </linearGradient>
            <linearGradient id="m" x1="50%" x2="50%" y1="0%" y2="100%">
                <stop offset="0%" stop-color="#FFDF00"/>
                <stop offset="100%" stop-color="#FF9D00"/>
            </linearGradient>
            <linearGradient id="n" x1="127.279%" x2="0%" y1="49.778%" y2="50.222%">
                <stop offset="0%" stop-color="#FFA400"/>
                <stop offset="100%" stop-color="#FF5E00"/>
            </linearGradient>
            <linearGradient id="o" x1="127.279%" x2="0%" y1="47.531%" y2="52.469%">
                <stop offset="0%" stop-color="#FFA400"/>
                <stop offset="100%" stop-color="#FF5E00"/>
            </linearGradient>
            <linearGradient id="p" x1="127.279%" x2="0%" y1="46.195%" y2="53.805%">
                <stop offset="0%" stop-color="#FFA400"/>
                <stop offset="100%" stop-color="#FF5E00"/>
            </linearGradient>
            <linearGradient id="q" x1="127.279%" x2="0%" y1="35.33%" y2="64.67%">
                <stop offset="0%" stop-color="#FFA400"/>
                <stop offset="100%" stop-color="#FF5E00"/>
            </linearGradient>
            <linearGradient id="r" x1="127.279%" x2="0%" y1="4.875%" y2="95.125%">
                <stop offset="0%" stop-color="#FFA400"/>
                <stop offset="100%" stop-color="#FF5E00"/>
            </linearGradient>
            <linearGradient id="s" x1="78.334%" x2="31.668%" y1="0%" y2="100%">
                <stop offset="0%" stop-color="#FFA400"/>
                <stop offset="100%" stop-color="#FF5E00"/>
            </linearGradient>
            <linearGradient id="t" x1="57.913%" x2="44.88%" y1="0%" y2="100%">
                <stop offset="0%" stop-color="#FFA400"/>
                <stop offset="100%" stop-color="#FF5E00"/>
            </linearGradient>
            <linearGradient id="u" x1="50.495%" x2="49.68%" y1="0%" y2="100%">
                <stop offset="0%" stop-color="#FFA400"/>
                <stop offset="100%" stop-color="#FF5E00"/>
            </linearGradient>
            <circle id="a" cx="308.5" cy="308.5" r="308.5"/>
            <circle id="v" cx="307.5" cy="308.5" r="316.5"/>
        </defs>
        <g fill="none" fill-rule="evenodd" transform="translate(9 8)">
            <mask id="c" fill="#fff">
                <circle id="a" cx="308.5" cy="308.5" r="308.5"/>

            </mask>
            <circle id="a" cx="308.5" cy="308.5" r="308.5" fill="url(#b)"/>

            <ellipse cx="81.5" cy="602.5" fill="#015064" stroke="#00CFE2" stroke-width="25" mask="url(#c)" rx="214.5" ry="185.968"/>
            <ellipse cx="535.5" cy="602.5" fill="#015064" stroke="#00CFE2" stroke-width="25" mask="url(#c)" rx="214.5" ry="185.968"/>
            <ellipse cx="81.5" cy="640.5" fill="#015064" stroke="#00A8B8" stroke-width="25" mask="url(#c)" rx="214.5" ry="185.968"/>
            <ellipse cx="535.5" cy="640.5" fill="#015064" stroke="#00A8B8" stroke-width="25" mask="url(#c)" rx="214.5" ry="185.968"/>
            <ellipse cx="81.5" cy="676.5" fill="#015064" stroke="#007782" stroke-width="25" mask="url(#c)" rx="214.5" ry="185.968"/>
            <ellipse cx="535.5" cy="676.5" fill="#015064" stroke="#007782" stroke-width="25" mask="url(#c)" rx="214.5" ry="185.968"/>
            <g mask="url(#c)">
                <path fill="url(#d)" stroke="#6E3A00" stroke-width="6.088" d="M98.318 88.007c7.691 37.104 16.643 72.442 26.856 106.013 10.212 33.571 25.57 68.934 46.07 106.088l-51.903 11.67c-10.057-60.01-17.232-99.172-21.525-117.487-4.293-18.315-10.989-51.434-20.089-99.357l20.591-6.927" transform="scale(-1 1) rotate(25 -300.37 -553.013)"/>
                <g stroke="#2F8A00">
                    <path fill="url(#e)" stroke-width="9.343" d="M108.544 66.538s-13.54-21.305-37.417-27.785c-15.917-4.321-33.933.31-54.048 13.892C33.464 65.975 47.24 73.52 58.405 75.28c16.749 2.64 50.14-8.74 50.14-8.74Z" transform="rotate(1 -6061.691 5926.397)"/>
                    <path fill="url(#f)" stroke-width="9.343" d="M108.544 67.138s-47.187-5.997-81.077 19.936C4.873 104.362-3.782 137.794 1.502 187.369c28.42-29.22 48.758-50.836 61.016-64.846 18.387-21.016 46.026-55.385 46.026-55.385Z" transform="rotate(1 -6061.691 5926.397)"/>
                    <path fill="url(#g)" stroke-width="9.343" d="M108.544 66.538c-1.96-21.705 3.98-38.018 17.82-48.94C140.203 6.674 154.85.808 170.303 0c-4.865 21.527-12.373 36.314-22.524 44.361-10.151 8.048-23.23 15.44-39.236 22.177Z" transform="rotate(1 -6061.691 5926.397)"/>
                    <path fill="url(#h)" stroke-width="9.343" d="M108.544 67.138c29.838-31.486 61.061-42.776 93.669-33.869C234.82 42.176 253.749 60.785 259 89.096c-34.898-3.657-59.974-6.343-75.228-8.058-15.254-1.716-40.33-6.349-75.228-13.9Z" transform="rotate(1 -6061.691 5926.397)"/>
                    <path fill="url(#i)" stroke-width="9.343" d="M108.544 67.138c34.868-9.381 64.503-3.658 88.905 17.17 24.402 20.829 39.656 46.686 45.762 77.571-39.626-7.574-68.4-20.115-86.322-37.624a395.051 395.051 0 0 1-48.345-57.117Z" transform="rotate(1 -6061.691 5926.397)"/>
                    <path fill="url(#j)" stroke-width="9.343" d="M108.544 67.138C76.206 82.6 57.608 105.366 52.75 135.436c-4.858 30.07-.292 62.89 13.698 98.462 24.873-41.418 38.905-71.368 42.096-89.849 3.191-18.48 3.191-44.118 0-76.91Z" transform="rotate(1 -6061.691 5926.397)"/>
                    <path stroke-linecap="round" stroke-width="5.91" d="M211.284 173.477c-13.851 21.992-23.291 42.022-28.32 60.093-5.03 18.071-8.175 33.143-9.436 45.216"/>
                    <path stroke-linecap="round" stroke-width="5.91" d="M209.814 176.884c-23.982 2.565-42.792 10.469-56.428 23.714-13.639 13.245-23.483 26.136-29.536 38.674M219.045 167.299c29.028-7.723 50.972-10.173 65.831-7.352 14.859 2.822 26.807 7.659 35.842 14.51M211.31 172.618c20.29 9.106 38.353 19.052 54.186 29.837 15.833 10.786 27.714 20.99 35.643 30.617"/>
                </g>
                <path stroke="#830305" stroke-linecap="round" stroke-linejoin="bevel" stroke-width="6.937" d="m409.379 398.157-23.176 18.556M328.04 375.516l-22.313 28.398M312.904 353.698l53.18 59.816"/>
                <path fill="url(#k)" d="M67.585 27.463H5.68C1.893 28.148 0 30.38 0 34.16c0 3.78 1.893 6.211 5.68 7.293h67.17l41.751-30.356c2.488-2.646 2.794-5.315.92-8.006s-4.6-3.626-8.177-2.803l-39.76 27.174Z" transform="scale(-1 1) rotate(-9 2092.128 2856.854)"/>
                <path fill="#D8D8D8" stroke="#FFF" stroke-linecap="round" stroke-linejoin="bevel" stroke-width="4.414" d="m402.861 391.51.471-4.088M382.21 388.752l.472-4.087M361.546 385.404l.485-3.845M337.59 371.883l2.56-2.498M324.276 359.567l2.56-2.497"/>
            </g>
            <ellipse cx="308.5" cy="720.5" fill="url(#l)" mask="url(#c)" rx="266" ry="316.5"/>
            <ellipse cx="308.5" cy="720.5" stroke="#6DA300" stroke-opacity=".502" stroke-width="26" mask="url(#c)" rx="253" ry="303.5"/>
            <g mask="url(#c)">
                <g transform="translate(389 -32)">
                    <circle cx="168.5" cy="113.5" r="113.5" fill="url(#m)"/>
                    <circle cx="168.5" cy="113.5" r="106" stroke="#FFC900" stroke-opacity=".529" stroke-width="15"/>
                    <path stroke="url(#n)" stroke-linecap="round" stroke-linejoin="bevel" stroke-width="12" d="M30 113H0"/>
                    <path stroke="url(#o)" stroke-linecap="round" stroke-linejoin="bevel" stroke-width="12" d="M33.5 79.5 7 74"/>
                    <path stroke="url(#p)" stroke-linecap="round" stroke-linejoin="bevel" stroke-width="12" d="m34 146-29 8"/>
                    <path stroke="url(#q)" stroke-linecap="round" stroke-linejoin="bevel" stroke-width="12" d="m45 177-24 13"/>
                    <path stroke="url(#r)" stroke-linecap="round" stroke-linejoin="bevel" stroke-width="12" d="m67 204-20 19"/>
                    <path stroke="url(#s)" stroke-linecap="round" stroke-linejoin="bevel" stroke-width="12" d="m94.373 227-13.834 22.847"/>
                    <path stroke="url(#t)" stroke-linecap="round" stroke-linejoin="bevel" stroke-width="12" d="M127.5 243.5 120 268"/>
                    <path stroke="url(#u)" stroke-linecap="round" stroke-linejoin="bevel" stroke-width="12" d="m167.5 252.5.5 24.5"/>
                </g>
            </g>
            <circle cx="307.5" cy="308.5" r="304" stroke="#000" stroke-width="25"/>
        </g>
    </symbol>
    <symbol id="typescript" fill="none" viewBox="0 0 128 128">
        <rect width="128" height="128" fill="#3178c6" rx="6"/>
        <path fill="#fff" fill-rule="evenodd" d="M74.3 99.5v14c2.2 1.2 5 2 8 2.6a52.9 52.9 0 0 0 19.4 0c3-.7 5.6-1.8 8-3.2a16.2 16.2 0 0 0 7.3-14.7 15.6 15.6 0 0 0-4.4-11.8 24 24 0 0 0-5.1-4 55 55 0 0 0-6.8-3.3 84.8 84.8 0 0 1-8.7-4.4c-1-.8-1.8-1.6-2.3-2.4a5 5 0 0 1-.8-2.8c0-1 .2-1.8.7-2.6s1.2-1.5 2.1-2c.9-.6 2-1 3.3-1.3 1.3-.3 2.8-.5 4.4-.5a27.6 27.6 0 0 1 14.8 4.4v-13c-2-1-4.4-1.5-7-2a46.3 46.3 0 0 0-18 .6 24 24 0 0 0-7.9 3.3c-2.2 1.5-4 3.5-5.3 5.8a17 17 0 0 0-2 8.5c0 4.2 1.2 7.7 3.6 10.7 2.4 3 6 5.4 11 7.5l5.3 2.3c1.7.7 3.1 1.5 4.3 2.4s2.2 1.7 2.9 2.6a5.5 5.5 0 0 1 .4 5.8c-.4.8-1.1 1.5-2 2-.9.6-2 1-3.3 1.4a26.5 26.5 0 0 1-22-6zm-23.6-35H69V53H18v11.6h18.2V116h14.5z" clip-rule="evenodd"/>
    </symbol>
    <symbol id="copy-icon" viewBox="0 0 32 32" fill="currentColor">
        <path fill-rule="evenodd" clip-rule="evenodd" d="M9.38896 4.16022C6.50272 4.16022 4.16016 6.50272 4.16016 9.38902V14.8927C4.16016 17.7789 6.50265 20.1215 9.38896 20.1215V18.4702C7.41145 18.4702 5.81136 16.8702 5.81136 14.8926V9.38896C5.81136 7.41145 7.41136 5.81136 9.38896 5.81136H14.8926C16.8701 5.81136 18.4702 7.41136 18.4702 9.38896H20.1215C20.1215 6.50272 17.779 4.16016 14.8927 4.16016L9.38896 4.16022ZM17.1016 11.8729C14.2154 11.8729 11.8728 14.2154 11.8728 17.1017V22.6053C11.8728 25.4916 14.2153 27.8341 17.1016 27.8341H22.6053C25.4915 27.8341 27.8341 25.4916 27.8341 22.6053V17.1017C27.8341 14.2154 25.4916 11.8729 22.6053 11.8729H17.1016ZM13.524 17.1017C13.524 15.1242 15.124 13.5241 17.1016 13.5241H22.6053C24.5828 13.5241 26.1829 15.1241 26.1829 17.1017V22.6053C26.1829 24.5828 24.5829 26.1829 22.6053 26.1829H17.1016C15.1241 26.1829 13.524 24.5829 13.524 22.6053V17.1017Z"></path>
    </symbol>
    <symbol id="email-icon" viewBox="0 0 24 24" stroke-width="1.5" stroke="currentColor" fill="none" stroke-linecap="round" stroke-linejoin="round">
        <path stroke="none" d="M0 0h24v24H0z" fill="none"></path>
        <path d="M3 7a2 2 0 0 1 2 -2h14a2 2 0 0 1 2 2v10a2 2 0 0 1 -2 2h-14a2 2 0 0 1 -2 -2v-10z"></path>
        <path d="M3 7l9 6l9 -6"></path>
    </symbol>
    <symbol id="external-link-icon" viewBox="0 0 24 24" fill="none" stroke="currentColor" stroke-width="2" stroke-linecap="round" stroke-linejoin="round">
        <path stroke="none" d="M0 0h24v24H0z" fill="none"></path>
        <path d="M12 6h-6a2 2 0 0 0 -2 2v10a2 2 0 0 0 2 2h10a2 2 0 0 0 2 -2v-6"></path>
        <path d="M11 13l9 -9"></path>
        <path d="M15 4h5v5"></path>
    </symbol>
</svg>